# Blender v2.80 (sub 75) OBJ File: '20191026ah.blend'
# www.blender.org
v -1.126451 -1.016756 -0.000000
v -1.124164 -1.064266 -0.000000
v -1.117440 -1.107759 -0.000000
v -1.106481 -1.147210 -0.000000
v -1.091494 -1.182601 -0.000000
v -1.072681 -1.213908 -0.000000
v -1.050248 -1.241111 -0.000000
v -1.024397 -1.264187 -0.000000
v -0.995334 -1.283117 -0.000000
v -0.963262 -1.297877 -0.000000
v -0.928385 -1.308446 -0.000000
v -0.890909 -1.314803 -0.000000
v -0.851036 -1.316927 -0.000000
v -0.799945 -1.314936 -0.000000
v -0.747383 -1.308990 -0.000000
v -0.095966 -1.521168 -0.000000
v 0.126595 -1.516378 -0.000000
v 0.335552 -1.500122 -0.000000
v 0.529810 -1.471897 -0.000000
v 0.708273 -1.431197 -0.000000
v 0.869845 -1.377517 -0.000000
v 1.013430 -1.310351 -0.000000
v 1.137932 -1.229197 -0.000000
v 1.242255 -1.133546 -0.000000
v 1.325303 -1.022896 -0.000000
v 1.385979 -0.896742 -0.000000
v 1.423189 -0.754577 -0.000000
v 1.435837 -0.595896 -0.000000
v 1.429469 -0.500354 -0.000000
v -1.126451 -1.016756 0.271425
v -1.124164 -1.064266 0.271425
v -1.117440 -1.107759 0.271425
v -1.106481 -1.147210 0.271425
v -1.091494 -1.182601 0.271425
v -1.072681 -1.213908 0.271425
v -1.050248 -1.241111 0.271425
v -1.024397 -1.264187 0.271425
v -0.995334 -1.283117 0.271425
v -0.963262 -1.297877 0.271425
v -0.928385 -1.308446 0.271425
v -0.890909 -1.314803 0.271425
v -0.851036 -1.316927 0.271425
v -0.799945 -1.314936 0.271425
v -0.747383 -1.308990 0.271425
v -0.095966 -1.521168 0.271425
v 0.126595 -1.516378 0.271425
v 0.335552 -1.500122 0.271425
v 0.529810 -1.471897 0.271425
v 0.708273 -1.431197 0.271425
v 0.869845 -1.377517 0.271425
v 1.013430 -1.310351 0.271425
v 1.137932 -1.229197 0.271425
v 1.242255 -1.133546 0.271425
v 1.325303 -1.022896 0.271425
v 1.385979 -0.896742 0.271425
v 1.423189 -0.754577 0.271425
v 1.435837 -0.595896 0.271425
v 1.429469 -0.500354 0.271425
v -1.097431 -1.015855 0.271425
v -1.097783 -1.015426 0.271425
v -1.096934 -1.016461 0.271425
v -1.097783 -1.015426 -0.000000
v -1.097431 -1.015855 -0.000000
v -1.096934 -1.016461 -0.000000
v -1.100569 -1.012031 -0.000000
v -1.100569 -1.012031 0.271425
v -1.096469 -1.017027 0.271425
v -1.096469 -1.017027 -0.000000
v -1.060661 -1.060660 0.271425
v -1.060661 -1.060660 -0.000000
v -1.101862 -1.010456 -0.000000
v -1.101545 -1.010842 -0.000000
v -1.101545 -1.010842 0.271425
v -1.101862 -1.010456 0.271425
v -1.102215 -1.010026 -0.000000
v -1.102215 -1.010026 0.271425
v -1.100836 -1.011706 0.271425
v -1.101031 -1.011469 0.271425
v -1.101268 -1.011180 0.271425
v -1.101268 -1.011180 -0.000000
v -1.101031 -1.011469 -0.000000
v -1.100682 -1.011893 0.271425
v -1.100836 -1.011706 -0.000000
v -1.100682 -1.011893 -0.000000
v -1.124110 -0.983347 0.271425
v -1.124110 -0.983347 -0.000000
v -0.918472 -1.177351 -0.000000
v -0.908768 -1.185315 -0.000000
v -0.908768 -1.185315 0.271425
v -0.881419 -1.207760 -0.000000
v -0.870850 -1.216434 -0.000000
v -0.881419 -1.207760 0.271425
v -0.870850 -1.216434 0.271425
v -0.849079 -1.234300 0.271425
v -0.838108 -1.243304 0.271425
v -0.849079 -1.234300 -0.000000
v -0.838108 -1.243304 -0.000000
v -0.833356 -1.247204 0.000000
v -0.833356 -1.247204 0.271425
v -1.058491 -1.062440 -0.000000
v -1.058214 -1.062667 -0.000000
v -1.058491 -1.062440 0.271425
v -1.058214 -1.062667 0.271425
v -1.054301 -1.065879 0.271425
v -1.054301 -1.065879 -0.000000
v -1.006830 -1.104838 0.271425
v -1.006830 -1.104838 -0.000000
v -1.000402 -1.110113 -0.000000
v -1.000402 -1.110113 0.271425
v -0.960264 -1.143053 -0.000000
v -0.951925 -1.149897 0.271425
v -0.960264 -1.143053 0.271425
v -0.951925 -1.149897 -0.000000
v -0.918472 -1.177351 0.271425
v -0.815449 -1.256776 -0.000000
v -0.815449 -1.256776 0.271425
v -0.798061 -1.266070 -0.000000
v -0.798061 -1.266070 0.271425
v -0.781003 -1.275187 -0.000000
v -0.763380 -1.284607 -0.000000
v -0.781003 -1.275187 0.271425
v -0.763380 -1.284607 0.271425
v -0.736578 -1.298933 0.271425
v -0.753619 -1.289824 0.271425
v -0.753619 -1.289824 -0.000000
v -0.736578 -1.298933 -0.000000
v -0.733257 -1.300708 -0.000000
v -0.725320 -1.304950 -0.000000
v -0.733257 -1.300708 0.271425
v -0.725320 -1.304950 0.271425
v -0.000000 -1.500000 0.000000
v -0.101154 -1.490037 -0.000000
v -0.000000 -1.500000 0.271425
v -0.101154 -1.490037 0.271425
v 0.445851 -1.424700 0.271425
v 0.378664 -1.445081 0.271425
v 0.298003 -1.469550 0.271425
v 0.378664 -1.445081 -0.000000
v 0.298003 -1.469550 -0.000000
v 0.292635 -1.471178 0.000000
v 0.292635 -1.471178 0.271425
v 0.574025 -1.385819 -0.000000
v 0.549039 -1.393399 -0.000000
v 0.549039 -1.393399 0.271425
v 0.574025 -1.385819 0.271425
v 0.445851 -1.424700 -0.000000
v 0.813760 -1.257679 0.271425
v 0.813760 -1.257679 -0.000000
v 0.731799 -1.301488 -0.000000
v 0.833355 -1.247205 0.271425
v 0.833355 -1.247205 -0.000000
v 0.731799 -1.301488 0.271425
v 0.674802 -1.331953 -0.000000
v 0.674802 -1.331953 0.271425
v 0.605785 -1.368843 0.271425
v 0.605785 -1.368843 -0.000000
v 0.909176 -1.184980 -0.000000
v 0.968054 -1.136661 0.271425
v 0.909176 -1.184980 0.271425
v 0.861288 -1.224281 -0.000000
v 0.861288 -1.224281 0.271425
v 1.112264 -0.997781 0.271425
v 1.171851 -0.925174 0.271425
v 1.112264 -0.997781 -0.000000
v 1.079609 -1.037571 0.271425
v 1.060660 -1.060660 -0.000000
v 1.079609 -1.037571 -0.000000
v 1.060660 -1.060660 0.271425
v 1.247204 -0.833355 -0.000000
v 1.230372 -0.853866 -0.000000
v 1.247205 -0.833355 0.271425
v 1.230372 -0.853866 0.271425
v 1.202053 -0.888372 -0.000000
v 1.202053 -0.888372 0.271425
v 1.171851 -0.925174 -0.000000
v 1.017337 -1.096215 -0.000000
v 1.017337 -1.096215 0.271425
v 0.968054 -1.136661 -0.000000
v 1.300137 -0.734325 -0.000000
v 1.300137 -0.734325 0.271425
v 1.285058 -0.762537 -0.000000
v 1.285058 -0.762537 0.271425
v 1.385819 -0.574025 0.271425
v 1.374770 -0.594697 0.271425
v 1.385819 -0.574025 0.000000
v 1.374770 -0.594697 -0.000000
v 1.366606 -0.609970 -0.000000
v 1.366606 -0.609970 0.271425
v 1.406701 -0.505187 0.271425
v 1.406701 -0.505187 -0.000000
v 1.420936 -0.458260 0.271425
v 1.420936 -0.458261 -0.000000
v 1.408320 -0.499849 -0.000000
v 1.408320 -0.499849 0.271425
v 1.409320 -0.496555 0.271425
v 1.409320 -0.496555 -0.000000
vt 0.000000 0.000000
vt 0.000000 0.000000
vt 0.000000 0.000000
vt 0.000000 0.000000
vt 0.000000 0.000000
vt 0.000000 0.000000
vt 0.000000 0.000000
vt 0.000000 0.000000
vt 0.000000 0.000000
vt 0.000000 0.000000
vt 0.000000 0.000000
vt 0.000000 0.000000
vt 0.000000 0.000000
vt 0.000000 0.000000
vt 0.000000 0.000000
vt 0.000000 0.000000
vt 0.000000 0.000000
vt 0.000000 0.000000
vt 0.000000 0.000000
vt 0.000000 0.000000
vt 0.000000 0.000000
vt 0.000000 0.000000
vt 0.000000 0.000000
vt 0.000000 0.000000
vt 0.000000 0.000000
vt 0.000000 0.000000
vt 0.000000 0.000000
vt 0.000000 0.000000
vt 0.000000 0.000000
vt 0.000000 0.000000
vt 0.000000 0.000000
vt 0.000000 0.000000
vt 0.000000 0.000000
vt 0.000000 0.000000
vt 0.000000 0.000000
vt 0.000000 0.000000
vt 0.000000 0.000000
vt 0.000000 0.000000
vt 0.000000 0.000000
vt 0.000000 0.000000
vt 0.000000 0.000000
vt 0.000000 0.000000
vt 0.000000 0.000000
vt 0.000000 0.000000
vt 0.000000 0.000000
vt 0.000000 0.000000
vt 0.000000 0.000000
vt 0.000000 0.000000
vt 0.000000 0.000000
vt 0.000000 0.000000
vt 0.000000 0.000000
vt 0.000000 0.000000
vt 0.000000 0.000000
vt 0.000000 0.000000
vt 0.000000 0.000000
vt 0.000000 0.000000
vt 0.000000 0.000000
vt 0.000000 0.000000
vt 0.000000 0.000000
vt 0.000000 0.000000
vt 0.000000 0.000000
vt 0.000000 0.000000
vt 0.000000 0.000000
vt 0.000000 0.000000
vt 0.000000 0.000000
vt 0.000000 0.000000
vt 0.000000 0.000000
vt 0.000000 0.000000
vt 0.000000 0.000000
vt 0.000000 0.000000
vt 0.000000 0.000000
vt 0.000000 0.000000
vt 0.000000 0.000000
vt 0.000000 0.000000
vt 0.000000 0.000000
vt 0.000000 0.000000
vt 0.000000 0.000000
vt 0.000000 0.000000
vt 0.000000 0.000000
vt 0.000000 0.000000
vt 0.000000 0.000000
vt 0.000000 0.000000
vt 0.000000 0.000000
vt 0.000000 0.000000
vt 0.000000 0.000000
vt 0.000000 0.000000
vt 0.000000 0.000000
vt 0.000000 0.000000
vt 0.000000 0.000000
vt 0.000000 0.000000
vt 0.000000 0.000000
vt 0.000000 0.000000
vt 0.000000 0.000000
vt 0.000000 0.000000
vt 0.000000 0.000000
vt 0.000000 0.000000
vt 0.000000 0.000000
vt 0.000000 0.000000
vt 0.000000 0.000000
vt 0.000000 0.000000
vt 0.000000 0.000000
vt 0.000000 0.000000
vt 0.000000 0.000000
vt 0.000000 0.000000
vt 0.000000 0.000000
vt 0.000000 0.000000
vt 0.000000 0.000000
vt 0.000000 0.000000
vt 0.000000 0.000000
vt 0.000000 0.000000
vt 0.000000 0.000000
vt 0.000000 0.000000
vt 0.000000 0.000000
vt 0.000000 0.000000
vt 0.000000 0.000000
vt 0.000000 0.000000
vt 0.000000 0.000000
vt 0.000000 0.000000
vt 0.000000 0.000000
vt 0.000000 0.000000
vt 0.000000 0.000000
vt 0.000000 0.000000
vt 0.000000 0.000000
vt 0.000000 0.000000
vt 0.000000 0.000000
vt 0.000000 0.000000
vt 0.000000 0.000000
vt 0.000000 0.000000
vt 0.000000 0.000000
vt 0.000000 0.000000
vt 0.000000 0.000000
vt 0.000000 0.000000
vt 0.000000 0.000000
vt 0.000000 0.000000
vt 0.000000 0.000000
vt 0.000000 0.000000
vt 0.000000 0.000000
vt 0.000000 0.000000
vt 0.000000 0.000000
vt 0.000000 0.000000
vt 0.000000 0.000000
vt 0.000000 0.000000
vt 0.000000 0.000000
vt 0.000000 0.000000
vt 0.000000 0.000000
vt 0.000000 0.000000
vt 0.000000 0.000000
vt 0.531250 0.750000
vt 0.531250 0.817856
vt 0.531846 0.817856
vt 0.540804 0.817856
vt 0.548266 0.817856
vt 0.559725 0.817856
vt 0.562500 0.817856
vt 0.562500 0.750000
vt 0.559725 0.750000
vt 0.548266 0.750000
vt 0.540804 0.750000
vt 0.531846 0.750000
vt 0.000000 0.000000
vt 0.000000 0.000000
vt 0.000000 0.000000
vt 0.000000 0.000000
vt 0.000000 0.000000
vt 0.000000 0.000000
vt 0.000000 0.000000
vt 0.000000 0.000000
vt 0.000000 0.000000
vt 0.000000 0.000000
vt 0.000000 0.000000
vt 0.000000 0.000000
vt 0.000000 0.000000
vt 0.000000 0.000000
vt 0.000000 0.000000
vt 0.000000 0.000000
vt 0.000000 0.000000
vt 0.000000 0.000000
vt 0.000000 0.000000
vt 0.000000 0.000000
vt 0.000000 0.000000
vt 0.000000 0.000000
vt 0.000000 0.000000
vt 0.000000 0.000000
vt 0.000000 0.000000
vt 0.000000 0.000000
vt 0.000000 0.000000
vt 0.000000 0.000000
vt 0.500000 0.750000
vt 0.500000 0.817856
vt 0.000000 0.000000
vt 0.000000 0.000000
vt 0.000000 0.000000
vt 0.000000 0.000000
vt 0.000000 0.000000
vt 0.000000 0.000000
vt 0.000000 0.000000
vt 0.000000 0.000000
vt 0.000000 0.000000
vt 0.375000 0.750000
vt 0.375000 0.817856
vt 0.375298 0.817856
vt 0.375336 0.817856
vt 0.375874 0.817856
vt 0.382401 0.817856
vt 0.383284 0.817856
vt 0.388803 0.817856
vt 0.389949 0.817856
vt 0.394548 0.817856
vt 0.395882 0.817856
vt 0.399642 0.817856
vt 0.401095 0.817856
vt 0.404088 0.817856
vt 0.405597 0.817856
vt 0.406250 0.817856
vt 0.406250 0.750000
vt 0.405597 0.750000
vt 0.404088 0.750000
vt 0.401095 0.750000
vt 0.399642 0.750000
vt 0.395882 0.750000
vt 0.394548 0.750000
vt 0.389949 0.750000
vt 0.388803 0.750000
vt 0.383284 0.750000
vt 0.382401 0.750000
vt 0.375874 0.750000
vt 0.375336 0.750000
vt 0.375298 0.750000
vt 0.000000 0.000000
vt 0.489198 0.750000
vt 0.489198 0.817856
vt 0.000000 0.000000
vt 0.000000 0.000000
vt 0.000000 0.000000
vt 0.000000 0.000000
vt 0.000000 0.000000
vt 0.000000 0.000000
vt 0.625000 0.750000
vt 0.625000 0.817856
vt 0.628174 0.817856
vt 0.633645 0.817856
vt 0.643627 0.817856
vt 0.648686 0.817856
vt 0.653430 0.817856
vt 0.656250 0.817856
vt 0.656250 0.750000
vt 0.653430 0.750000
vt 0.648686 0.750000
vt 0.643627 0.750000
vt 0.633645 0.750000
vt 0.628174 0.750000
vt 0.408408 0.817856
vt 0.410503 0.817856
vt 0.412559 0.817856
vt 0.414682 0.817856
vt 0.415859 0.817856
vt 0.417912 0.817856
vt 0.418312 0.817856
vt 0.419269 0.817856
vt 0.419269 0.750000
vt 0.418312 0.750000
vt 0.417912 0.750000
vt 0.415859 0.750000
vt 0.414682 0.750000
vt 0.412559 0.750000
vt 0.410503 0.750000
vt 0.408408 0.750000
vt 0.566327 0.817856
vt 0.574644 0.817856
vt 0.581512 0.817856
vt 0.591389 0.817856
vt 0.593750 0.817856
vt 0.593750 0.750000
vt 0.591389 0.750000
vt 0.581512 0.750000
vt 0.574644 0.750000
vt 0.566327 0.750000
vt 0.000000 0.000000
vt 0.687500 0.750000
vt 0.687500 0.817856
vt 0.695145 0.817856
vt 0.695738 0.817856
vt 0.696104 0.817856
vt 0.700356 0.817856
vt 0.700356 0.750000
vt 0.696104 0.750000
vt 0.695738 0.750000
vt 0.695145 0.750000
vt 0.000000 0.000000
vt 0.664784 0.817856
vt 0.668184 0.817856
vt 0.683168 0.817856
vt 0.685009 0.817856
vt 0.685009 0.750000
vt 0.683168 0.750000
vt 0.668184 0.750000
vt 0.664784 0.750000
vt 0.000000 0.000000
vt 0.000000 0.000000
vt 0.597590 0.817856
vt 0.604174 0.817856
vt 0.612268 0.817856
vt 0.619044 0.817856
vt 0.619044 0.750000
vt 0.612268 0.750000
vt 0.604174 0.750000
vt 0.597590 0.750000
vt 0.369001 0.750000
vt 0.368923 0.750000
vt 0.368840 0.750000
vt 0.368781 0.750000
vt 0.368315 0.750000
vt 0.368296 0.750000
vt 0.368270 0.750000
vt 0.368237 0.750000
vt 0.368198 0.750000
vt 0.368151 0.750000
vt 0.368098 0.750000
vt 0.368039 0.750000
vt 0.364371 0.750000
vt 0.364371 0.817856
vt 0.368039 0.817856
vt 0.368098 0.817856
vt 0.368151 0.817856
vt 0.368198 0.817856
vt 0.368237 0.817856
vt 0.368270 0.817856
vt 0.368296 0.817856
vt 0.368315 0.817856
vt 0.368781 0.817856
vt 0.368840 0.817856
vt 0.368923 0.817856
vt 0.369001 0.817856
vt 0.000000 0.000000
vn 0.0000 0.0000 -1.0000
vn -0.0000 0.0000 1.0000
vn -0.7715 -0.6362 0.0000
vn 0.5461 -0.8377 0.0000
vn -0.6659 -0.7460 0.0000
vn -0.5458 -0.8379 0.0000
vn 0.9968 -0.0795 0.0000
vn -0.4181 -0.9084 0.0000
vn -0.2900 -0.9570 0.0000
vn 0.1801 -0.9836 0.0000
vn -0.1672 -0.9859 0.0000
vn 0.1124 -0.9937 0.0000
vn 0.4237 -0.9058 0.0000
vn -0.0532 -0.9986 0.0000
vn 0.0389 -0.9992 0.0000
vn 0.3153 -0.9490 0.0000
vn 0.2224 -0.9750 0.0000
vn 0.9674 -0.2532 0.0000
vn 0.1438 -0.9896 0.0000
vn 0.0215 -0.9998 0.0000
vn 0.0776 -0.9970 0.0000
vn 0.9012 -0.4334 0.0000
vn -0.9988 -0.0481 0.0000
vn 0.7998 -0.6003 0.0000
vn -0.9883 -0.1528 0.0000
vn -0.9635 -0.2676 0.0000
vn 0.9801 0.1987 0.0000
vn 0.6758 -0.7371 0.0000
vn -0.9208 -0.3900 0.0000
vn -0.8572 -0.5151 0.0000
vn 0.9978 0.0665 0.0000
vn -0.2903 0.9569 -0.0000
vn -0.9864 -0.1644 0.0000
vn -0.9976 0.0699 0.0000
vn -0.0980 0.9952 0.0000
vn 0.6344 0.7730 -0.0000
vn 0.0980 0.9952 0.0000
vn -0.7730 0.6344 0.0000
vn 0.4714 0.8819 -0.0000
vn -0.4714 0.8819 0.0000
vn -0.9569 0.2903 -0.0000
vn -0.8819 0.4714 0.0000
vn -0.6344 0.7730 0.0000
vn 0.7730 0.6344 -0.0000
s off
f 1/1/1 86/2/1 75/3/1
f 1/1/1 75/3/1 71/4/1
f 1/1/1 71/4/1 72/5/1
f 1/1/1 72/5/1 80/6/1
f 1/1/1 80/6/1 81/7/1
f 1/1/1 81/7/1 83/8/1
f 1/1/1 83/8/1 84/9/1
f 1/1/1 84/9/1 65/10/1
f 1/1/1 65/10/1 62/11/1
f 1/1/1 62/11/1 63/12/1
f 1/1/1 63/12/1 64/13/1
f 1/1/1 64/13/1 68/14/1
f 2/15/1 1/1/1 68/14/1 70/16/1 100/17/1
f 2/15/1 100/17/1 101/18/1
f 2/15/1 101/18/1 105/19/1
f 3/20/1 2/15/1 105/19/1 107/21/1
f 3/20/1 107/21/1 108/22/1
f 4/23/1 3/20/1 108/22/1 110/24/1
f 4/23/1 110/24/1 113/25/1
f 5/26/1 4/23/1 113/25/1 87/27/1
f 5/26/1 87/27/1 88/28/1
f 6/29/1 5/26/1 88/28/1 90/30/1
f 6/29/1 90/30/1 91/31/1
f 7/32/1 6/29/1 91/31/1 96/33/1
f 7/32/1 96/33/1 97/34/1
f 8/35/1 7/32/1 97/34/1 98/36/1 115/37/1
f 8/35/1 115/37/1 117/38/1
f 9/39/1 8/35/1 117/38/1 119/40/1
f 9/39/1 119/40/1 120/41/1
f 10/42/1 9/39/1 120/41/1 125/43/1
f 10/42/1 125/43/1 126/44/1
f 11/45/1 10/42/1 126/44/1 127/46/1
f 11/45/1 127/46/1 128/47/1 15/48/1
f 12/49/1 11/45/1 15/48/1
f 12/49/1 15/48/1 14/50/1
f 13/51/1 12/49/1 14/50/1
f 16/52/1 132/53/1 131/54/1 140/55/1 139/56/1 19/57/1
f 16/52/1 19/57/1 18/58/1
f 16/52/1 18/58/1 17/59/1
f 30/60/2 76/61/2 85/62/2
f 30/60/2 74/63/2 76/61/2
f 30/60/2 73/64/2 74/63/2
f 30/60/2 79/65/2 73/64/2
f 30/60/2 78/66/2 79/65/2
f 30/60/2 77/67/2 78/66/2
f 30/60/2 82/68/2 77/67/2
f 30/60/2 66/69/2 82/68/2
f 30/60/2 60/70/2 66/69/2
f 30/60/2 59/71/2 60/70/2
f 30/60/2 61/72/2 59/71/2
f 30/60/2 67/73/2 61/72/2
f 31/74/2 102/75/2 69/76/2 67/73/2 30/60/2
f 31/74/2 103/77/2 102/75/2
f 31/74/2 104/78/2 103/77/2
f 32/79/2 106/80/2 104/78/2 31/74/2
f 32/79/2 109/81/2 106/80/2
f 33/82/2 112/83/2 109/81/2 32/79/2
f 33/82/2 111/84/2 112/83/2
f 34/85/2 114/86/2 111/84/2 33/82/2
f 34/85/2 89/87/2 114/86/2
f 35/88/2 92/89/2 89/87/2 34/85/2
f 35/88/2 93/90/2 92/89/2
f 36/91/2 94/92/2 93/90/2 35/88/2
f 36/91/2 95/93/2 94/92/2
f 37/94/2 116/95/2 99/96/2 95/93/2 36/91/2
f 37/94/2 118/97/2 116/95/2
f 38/98/2 121/99/2 118/97/2 37/94/2
f 38/98/2 122/100/2 121/99/2
f 39/101/2 124/102/2 122/100/2 38/98/2
f 39/101/2 123/103/2 124/102/2
f 40/104/2 129/105/2 123/103/2 39/101/2
f 40/104/2 44/106/2 130/107/2 129/105/2
f 41/108/2 44/106/2 40/104/2
f 41/108/2 43/109/2 44/106/2
f 42/110/2 43/109/2 41/108/2
f 45/111/2 48/112/2 137/113/2 141/114/2 133/115/2 134/116/2
f 45/111/2 47/117/2 48/112/2
f 45/111/2 46/118/2 47/117/2
f 6/29/3 7/32/3 36/91/3 35/88/3
f 22/119/4 23/120/4 52/121/4 51/122/4
f 7/32/5 8/35/5 37/94/5 36/91/5
f 8/35/6 9/39/6 38/98/6 37/94/6
f 27/123/7 28/124/7 57/125/7 56/126/7
f 9/39/8 10/42/8 39/101/8 38/98/8
f 10/42/9 11/45/9 40/104/9 39/101/9
f 15/48/10 128/47/10 130/107/10 44/106/10
f 11/45/11 12/49/11 41/108/11 40/104/11
f 14/50/12 15/48/12 44/106/12 43/109/12
f 21/127/13 22/119/13 51/122/13 50/128/13
f 12/49/14 13/51/14 42/110/14 41/108/14
f 13/51/15 14/50/15 43/109/15 42/110/15
f 20/129/16 21/127/16 50/128/16 49/130/16
f 19/57/17 20/129/17 49/130/17 48/112/17
f 26/131/18 27/123/18 56/126/18 55/132/18
f 18/58/19 19/57/19 48/112/19 47/117/19
f 16/52/20 17/59/20 46/118/20 45/111/20
f 17/59/21 18/58/21 47/117/21 46/118/21
f 25/133/22 26/131/22 55/132/22 54/134/22
f 1/1/23 2/15/23 31/74/23 30/60/23
f 24/135/24 25/133/24 54/134/24 53/136/24
f 2/15/25 3/20/25 32/79/25 31/74/25
f 3/20/26 4/23/26 33/82/26 32/79/26
f 29/137/27 192/138/27 191/139/27 58/140/27
f 23/120/28 24/135/28 53/136/28 52/121/28
f 4/23/29 5/26/29 34/85/29 33/82/29
f 5/26/30 6/29/30 35/88/30 34/85/30
f 28/124/31 29/137/31 58/140/31 57/125/31
f 160/141/1 157/142/1 23/120/1
f 146/143/1 143/144/1 21/127/1 20/129/1
f 189/145/2 183/146/2 184/147/2 57/125/2 58/140/2
f 140/148/32 141/149/32 137/150/32 136/151/32 135/152/32 144/153/32 145/154/32 142/155/32 143/156/32 146/157/32 138/158/32 139/159/32
f 167/160/1 164/161/1 25/133/1
f 159/162/2 161/163/2 52/121/2
f 176/164/1 166/165/1 167/160/1 25/133/1 24/135/1
f 174/166/2 163/167/2 55/132/2
f 179/168/1 187/169/1 28/124/1 27/123/1
f 134/116/33 132/53/33 16/52/33 45/111/33
f 186/170/1 185/171/1 190/172/1 29/137/1 28/124/1
f 136/173/2 137/113/2 48/112/2 49/130/2
f 161/163/2 150/174/2 147/175/2 52/121/2
f 180/176/2 182/177/2 56/126/2
f 175/178/1 173/179/1 26/131/1
f 164/161/1 175/178/1 26/131/1 25/133/1
f 147/175/2 152/180/2 51/122/2 52/121/2
f 144/181/2 135/182/2 49/130/2 50/128/2
f 158/183/2 159/162/2 52/121/2 53/136/2
f 190/172/1 193/184/1 29/137/1
f 85/62/34 86/2/34 1/1/34 30/60/34
f 194/185/2 189/145/2 58/140/2
f 181/186/1 179/168/1 27/123/1
f 191/139/2 195/187/2 58/140/2
f 135/182/2 136/173/2 49/130/2
f 131/188/35 133/189/35 141/149/35 140/148/35
f 184/147/2 188/190/2 57/125/2
f 154/191/2 155/192/2 50/128/2 51/122/2
f 182/177/2 171/193/2 172/194/2 55/132/2 56/126/2
f 155/192/2 145/195/2 144/181/2 50/128/2
f 152/180/2 154/191/2 51/122/2
f 173/179/1 170/196/1 26/131/1
f 153/197/1 149/198/1 22/119/1
f 70/199/36 69/200/36 102/201/36 103/202/36 104/203/36 106/204/36 109/205/36 112/206/36 111/207/36 114/208/36 89/209/36 92/210/36 93/211/36 94/212/36 95/213/36 99/214/36 98/215/36 97/216/36 96/217/36 91/218/36 90/219/36 88/220/36 87/221/36 113/222/36 110/223/36 108/224/36 107/225/36 105/226/36 101/227/36 100/228/36
f 178/229/1 176/164/1 24/135/1
f 133/189/37 131/188/37 132/230/37 134/231/37
f 138/232/1 146/143/1 20/129/1
f 172/194/2 174/166/2 55/132/2
f 165/233/2 168/234/2 177/235/2 53/136/2 54/134/2
f 143/144/1 142/236/1 156/237/1 21/127/1
f 156/237/1 153/197/1 22/119/1 21/127/1
f 166/238/38 168/239/38 165/240/38 162/241/38 163/242/38 174/243/38 172/244/38 171/245/38 169/246/38 170/247/38 173/248/38 175/249/38 164/250/38 167/251/38
f 98/215/39 99/214/39 116/252/39 118/253/39 121/254/39 122/255/39 124/256/39 123/257/39 129/258/39 130/259/39 128/260/39 127/261/39 126/262/39 125/263/39 120/264/39 119/265/39 117/266/39 115/267/39
f 142/155/40 145/154/40 155/268/40 154/269/40 152/270/40 147/271/40 150/272/40 151/273/40 148/274/40 149/275/40 153/276/40 156/277/40
f 149/198/1 148/278/1 23/120/1 22/119/1
f 195/187/2 194/185/2 58/140/2
f 185/279/41 183/280/41 189/281/41 194/282/41 195/283/41 191/284/41 192/285/41 196/286/41 193/287/41 190/288/41
f 187/169/1 186/170/1 28/124/1
f 196/289/1 192/138/1 29/137/1
f 169/246/42 171/245/42 182/290/42 180/291/42 188/292/42 184/293/42 183/280/42 185/279/42 186/294/42 187/295/42 179/296/42 181/297/42
f 148/278/1 151/298/1 160/141/1 23/120/1
f 163/167/2 162/299/2 54/134/2 55/132/2
f 139/56/1 138/232/1 20/129/1 19/57/1
f 177/235/2 158/183/2 53/136/2
f 151/273/43 150/272/43 161/300/43 159/301/43 158/302/43 177/303/43 168/239/43 166/238/43 176/304/43 178/305/43 157/306/43 160/307/43
f 69/200/44 70/199/44 68/308/44 64/309/44 63/310/44 62/311/44 65/312/44 84/313/44 83/314/44 81/315/44 80/316/44 72/317/44 71/318/44 75/319/44 86/320/44 85/321/44 76/322/44 74/323/44 73/324/44 79/325/44 78/326/44 77/327/44 82/328/44 66/329/44 60/330/44 59/331/44 61/332/44 67/333/44
f 193/184/1 196/289/1 29/137/1
f 170/196/1 169/334/1 181/186/1 27/123/1 26/131/1
f 188/190/2 180/176/2 56/126/2 57/125/2
f 162/299/2 165/233/2 54/134/2
f 157/142/1 178/229/1 24/135/1 23/120/1
